<?xml version="1.0" encoding="utf-8" ?>
<svg xmlns="http://www.w3.org/2000/svg" xmlns:xlink="http://www.w3.org/1999/xlink" width="32" height="32">
	<path fill="#E2F4E9" transform="scale(0.0625 0.0625)" d="M247.956 64.1064Q248.29 64.0872 248.625 64.0784Q251.013 63.9911 253.403 63.9631Q255.792 63.9352 258.182 63.9665Q260.572 63.9978 262.96 64.0884Q265.348 64.179 267.733 64.3288Q270.118 64.4787 272.498 64.6877Q274.879 64.8966 277.254 65.1646Q279.628 65.4326 281.996 65.7594Q284.363 66.0862 286.721 66.4717Q289.08 66.8572 291.428 67.3011Q293.776 67.7449 296.113 68.247Q298.449 68.749 300.772 69.3088Q303.096 69.8687 305.404 70.486Q307.713 71.1033 310.006 71.7777Q312.298 72.4521 314.573 73.1832Q316.849 73.9143 319.105 74.7016Q321.361 75.489 323.597 76.332Q325.834 77.1751 328.048 78.0734Q330.263 78.9717 332.454 79.9247Q334.646 80.8777 336.813 81.8848Q338.98 82.8919 341.122 83.9524Q343.263 85.0129 345.378 86.1263Q347.492 87.2397 349.579 88.4051Q351.665 89.5706 353.722 90.7875Q355.778 92.0044 357.804 93.272Q359.83 94.5396 361.824 95.857Q363.818 97.1744 365.778 98.5409Q367.739 99.9075 369.665 101.322Q371.591 102.737 373.481 104.199Q375.372 105.661 377.225 107.17Q379.078 108.678 380.894 110.232Q382.709 111.786 384.486 113.385Q386.262 114.984 387.998 116.626Q389.721 118.262 391.404 119.941Q393.086 121.619 394.727 123.339Q396.367 125.058 397.965 126.818Q399.562 128.577 401.116 130.375Q402.669 132.174 404.178 134.01Q405.687 135.846 407.149 137.719Q408.612 139.592 410.028 141.5Q411.445 143.409 412.813 145.351Q414.182 147.294 415.502 149.27Q416.822 151.246 418.093 153.254Q419.364 155.262 420.585 157.301Q421.806 159.34 422.977 161.408Q424.147 163.476 425.266 165.573Q426.385 167.67 427.452 169.793Q428.518 171.917 429.532 174.066Q430.546 176.215 431.507 178.389Q432.468 180.563 433.374 182.759Q434.281 184.956 435.133 187.174Q435.985 189.393 436.782 191.632Q437.579 193.87 438.321 196.128Q439.062 198.386 439.748 200.661Q440.434 202.937 441.063 205.229Q441.692 207.52 442.264 209.827Q442.837 212.133 443.352 214.453Q443.867 216.773 444.325 219.105Q444.783 221.437 445.183 223.78Q445.583 226.122 445.925 228.474Q446.267 230.826 446.551 233.185Q446.835 235.544 447.06 237.91Q447.286 240.276 447.453 242.647Q447.62 245.017 447.729 247.391Q447.837 249.765 447.887 252.141Q447.931 254.473 447.918 256.806Q447.905 259.139 447.835 261.471Q447.766 263.803 447.639 266.132Q447.513 268.462 447.331 270.788Q447.148 273.113 446.909 275.434Q446.67 277.755 446.375 280.069Q446.08 282.383 445.729 284.689Q445.378 286.995 444.97 289.293Q444.563 291.59 444.101 293.876Q443.638 296.163 443.12 298.437Q442.602 300.712 442.029 302.973Q441.456 305.235 440.828 307.482Q440.201 309.729 439.519 311.96Q438.837 314.19 438.101 316.404Q437.365 318.618 436.575 320.813Q435.786 323.009 434.943 325.184Q434.101 327.359 433.206 329.514Q432.311 331.668 431.364 333.8Q430.417 335.932 429.418 338.041Q428.42 340.149 427.37 342.233Q426.321 344.316 425.222 346.374Q424.122 348.431 422.973 350.462Q421.824 352.492 420.626 354.493Q419.428 356.495 418.181 358.467Q416.935 360.44 415.642 362.381Q414.348 364.322 413.007 366.231Q411.667 368.141 410.281 370.017Q408.894 371.893 407.463 373.735Q406.031 375.578 404.556 377.384Q403.08 379.191 401.561 380.962Q400.042 382.732 398.48 384.465Q396.918 386.198 395.315 387.893Q392.742 390.605 390.065 393.216Q387.389 395.826 384.614 398.332Q381.839 400.837 378.969 403.233Q376.099 405.629 373.138 407.912Q370.178 410.196 367.131 412.363Q364.085 414.53 360.957 416.578Q357.829 418.625 354.624 420.551Q351.419 422.476 348.142 424.276Q344.865 426.076 341.521 427.748Q338.177 429.42 334.771 430.961Q331.365 432.503 327.902 433.911Q324.439 435.32 320.923 436.593Q317.408 437.867 313.847 439.004Q310.285 440.14 306.682 441.139Q303.079 442.137 299.44 442.995Q295.801 443.853 292.132 444.57C283.054 446.338 273.599 447.613 264.342 447.819C215.609 450.368 165.193 432.276 128.827 399.845Q127.057 398.278 125.325 396.667Q123.594 395.057 121.903 393.404Q120.212 391.752 118.562 390.059Q116.912 388.365 115.304 386.632Q113.696 384.898 112.131 383.126Q110.566 381.353 109.045 379.543Q107.524 377.732 106.048 375.885Q104.572 374.038 103.142 372.155Q101.712 370.272 100.329 368.355Q98.9451 366.437 97.6093 364.486Q96.2734 362.535 94.9858 360.552Q93.6982 358.569 92.4598 356.555Q91.2213 354.541 90.0327 352.497Q88.8441 350.453 87.7061 348.38Q86.5681 346.308 85.4813 344.208Q84.3946 342.108 83.3597 339.982Q82.3249 337.856 81.3426 335.705Q80.3603 333.555 79.4311 331.38Q78.502 329.206 77.6265 327.01Q76.751 324.813 75.9298 322.596Q75.1086 320.379 74.342 318.142Q73.5755 315.905 72.8642 313.65Q72.1529 311.395 71.4971 309.124Q70.8414 306.852 70.2417 304.565Q69.642 302.278 69.0987 299.977Q68.5553 297.676 68.0687 295.362Q67.582 293.048 67.1524 290.723Q66.7227 288.398 66.3504 286.063Q65.978 283.728 65.663 281.384Q65.3481 279.041 65.0909 276.691Q64.8336 274.34 64.6342 271.984Q64.4348 269.628 64.2933 267.268Q64.1583 264.928 64.0803 262.586Q64.0022 260.244 63.9811 257.901Q63.96 255.557 63.9959 253.214Q64.0317 250.871 64.1245 248.529Q64.2173 246.188 64.367 243.849Q64.5167 241.51 64.7232 239.176Q64.9297 236.841 65.1929 234.513Q65.4561 232.184 65.7758 229.863Q66.0955 227.541 66.4716 225.228Q66.8476 222.915 67.2798 220.611Q67.7119 218.308 68.1999 216.016Q68.6879 213.724 69.2315 211.444Q69.7751 209.165 70.3739 206.899Q70.9728 204.633 71.6265 202.383Q72.2802 200.132 72.9885 197.899Q73.6967 195.665 74.459 193.449Q75.2214 191.233 76.0373 189.036Q76.8533 186.839 77.7224 184.663Q78.5916 182.486 79.5133 180.332Q80.4351 178.177 81.409 176.045Q82.3828 173.914 83.4082 171.807Q84.4336 169.699 85.5099 167.618Q86.5862 165.536 87.7128 163.481Q88.8394 161.426 90.0156 159.399Q91.1918 157.372 92.4169 155.375Q93.6421 153.377 94.9154 151.409Q96.1887 149.442 97.5095 147.506Q98.8303 145.57 100.198 143.667Q101.565 141.764 102.978 139.895Q104.392 138.025 105.85 136.191Q107.308 134.356 108.811 132.558Q110.313 130.759 111.859 128.998C147.509 89.1153 194.662 67.0272 247.956 64.1064ZM252.596 102.623C249.305 102.732 245.965 102.765 242.685 103.051Q240.921 103.203 239.161 103.396Q237.4 103.589 235.645 103.822Q233.89 104.056 232.14 104.329Q230.391 104.603 228.648 104.917Q226.905 105.231 225.17 105.585Q223.435 105.939 221.709 106.333Q219.983 106.726 218.266 107.16Q216.549 107.593 214.843 108.066Q213.136 108.539 211.441 109.051Q209.746 109.563 208.063 110.114Q206.38 110.666 204.711 111.255Q203.041 111.845 201.385 112.473Q199.73 113.101 198.089 113.767Q196.448 114.432 194.823 115.136Q193.198 115.839 191.59 116.58Q189.981 117.321 188.391 118.099Q186.8 118.876 185.227 119.69Q183.655 120.504 182.101 121.354Q180.548 122.204 179.014 123.09Q177.481 123.975 175.968 124.896Q174.456 125.817 172.965 126.772Q171.474 127.727 170.005 128.717Q168.537 129.706 167.091 130.729Q165.646 131.752 164.225 132.808Q162.803 133.864 161.406 134.952Q160.01 136.04 158.638 137.161Q157.267 138.281 155.922 139.433Q154.577 140.584 153.258 141.766Q151.94 142.949 150.649 144.161Q149.359 145.373 148.096 146.615Q146.834 147.857 145.6 149.127Q144.367 150.397 143.163 151.696Q141.893 153.072 140.657 154.479Q139.421 155.886 138.219 157.323Q137.018 158.759 135.852 160.225Q134.686 161.69 133.556 163.184Q132.425 164.677 131.332 166.197Q130.239 167.718 129.182 169.264Q128.126 170.811 127.108 172.383Q126.09 173.954 125.11 175.551Q124.131 177.147 123.19 178.766Q122.25 180.386 121.349 182.028Q120.448 183.67 119.588 185.333Q118.727 186.996 117.907 188.68Q117.087 190.364 116.309 192.067Q115.53 193.77 114.793 195.492Q114.056 197.214 113.362 198.953Q112.667 200.692 112.015 202.447Q111.362 204.203 110.753 205.974Q110.144 207.745 109.578 209.53Q109.012 211.315 108.489 213.114Q107.967 214.912 107.488 216.723Q107.01 218.533 106.575 220.355Q106.141 222.177 105.751 224.008Q105.361 225.84 105.016 227.681Q104.671 229.522 104.371 231.37Q104.071 233.219 103.815 235.074Q103.56 236.929 103.35 238.79Q103.14 240.651 102.976 242.517Q102.811 244.382 102.692 246.251Q102.573 248.12 102.499 249.991Q102.426 251.863 102.398 253.735Q102.37 255.608 102.387 257.481Q102.405 259.353 102.468 261.225Q102.535 263.112 102.648 264.996Q102.761 266.881 102.92 268.762Q103.079 270.644 103.285 272.521Q103.49 274.397 103.741 276.269Q103.992 278.14 104.29 280.004Q104.587 281.869 104.929 283.725Q105.272 285.582 105.66 287.43Q106.048 289.277 106.482 291.115Q106.915 292.953 107.393 294.779Q107.872 296.605 108.395 298.42Q108.918 300.234 109.485 302.035Q110.052 303.835 110.664 305.622Q111.275 307.408 111.93 309.179Q112.585 310.95 113.283 312.704Q113.981 314.458 114.722 316.194Q115.463 317.931 116.246 319.649Q117.03 321.367 117.855 323.065Q118.68 324.763 119.547 326.44Q120.413 328.118 121.321 329.773Q122.228 331.429 123.176 333.062Q124.124 334.695 125.112 336.304Q126.099 337.913 127.126 339.497Q128.153 341.082 129.218 342.64Q130.284 344.199 131.387 345.731Q132.49 347.263 133.63 348.768Q134.771 350.273 135.948 351.749Q137.125 353.225 138.338 354.672Q139.551 356.119 140.799 357.535Q142.047 358.952 143.329 360.338Q144.612 361.724 145.928 363.077Q147.244 364.431 148.592 365.752Q149.941 367.073 151.322 368.361Q154.113 370.957 157.03 373.411Q159.947 375.865 162.981 378.171Q166.016 380.477 169.162 382.629Q172.308 384.781 175.557 386.775Q178.805 388.768 182.149 390.598Q185.493 392.428 188.923 394.089Q192.354 395.75 195.863 397.239Q199.372 398.728 202.95 400.041C207.325 401.658 211.811 402.929 216.264 404.307C217.503 397.978 219.557 391.635 221.232 385.39C225.036 371.207 229.031 357.051 232.597 342.808L232.974 342.843C238.948 343.42 244.709 344.986 250.756 345.339Q252.819 345.459 254.886 345.483Q256.953 345.508 259.018 345.436Q261.084 345.365 263.144 345.198Q265.204 345.031 267.254 344.768Q269.304 344.506 271.34 344.149Q273.376 343.792 275.393 343.342Q277.41 342.891 279.404 342.347Q281.398 341.803 283.365 341.168Q285.331 340.532 287.267 339.807Q289.202 339.081 291.101 338.266Q293.001 337.451 294.86 336.55Q296.72 335.648 298.536 334.661Q300.352 333.674 302.12 332.604Q303.889 331.534 305.606 330.383Q307.322 329.233 308.984 328.004Q310.646 326.775 312.249 325.47Q313.115 324.773 313.963 324.054Q314.811 323.335 315.641 322.595Q316.47 321.855 317.282 321.095Q318.093 320.335 318.885 319.555Q319.677 318.775 320.449 317.975Q321.221 317.175 321.973 316.357Q322.725 315.538 323.457 314.701Q324.188 313.864 324.899 313.008Q325.609 312.153 326.298 311.281Q326.987 310.408 327.654 309.519Q328.32 308.629 328.965 307.723Q329.609 306.818 330.231 305.896Q330.853 304.974 331.451 304.038Q332.05 303.101 332.625 302.149Q333.2 301.198 333.751 300.233Q334.302 299.267 334.829 298.288Q335.356 297.309 335.858 296.318Q336.361 295.326 336.838 294.322Q337.316 293.318 337.768 292.302Q338.22 291.287 338.647 290.26Q339.074 289.234 339.475 288.197Q339.876 287.16 340.251 286.114Q340.627 285.067 340.976 284.012Q341.324 282.956 341.647 281.892Q341.97 280.828 342.266 279.757Q342.561 278.685 342.831 277.607Q343.1 276.528 343.342 275.443Q343.584 274.358 343.799 273.267Q344.014 272.177 344.202 271.081Q344.39 269.985 344.55 268.885Q344.711 267.785 344.844 266.681Q344.977 265.578 345.082 264.471Q345.66 258.341 345.412 252.188C344.069 228.256 333.938 205.459 315.897 189.404Q314.286 187.952 312.607 186.581Q310.928 185.209 309.184 183.921Q307.439 182.633 305.634 181.432Q303.83 180.231 301.968 179.119Q300.107 178.007 298.194 176.987Q296.28 175.967 294.319 175.041Q292.359 174.116 290.355 173.287Q288.352 172.458 286.31 171.728C284.06 170.923 281.613 169.985 279.257 169.628C277.62 173.324 276.126 180.715 274.999 184.913L265.769 219.319L232.761 342.407C209.47 335.968 189.909 321.161 177.948 300.04Q177.404 299.08 176.884 298.107Q176.365 297.133 175.869 296.147Q175.373 295.162 174.902 294.164Q174.431 293.166 173.985 292.157Q173.538 291.148 173.117 290.128Q172.696 289.108 172.3 288.079Q171.904 287.049 171.533 286.009Q171.163 284.97 170.818 283.922Q170.473 282.874 170.155 281.817Q169.836 280.761 169.544 279.697Q169.251 278.633 168.985 277.562Q168.719 276.491 168.479 275.414Q168.24 274.337 168.027 273.255Q167.814 272.172 167.628 271.084Q167.441 269.997 167.282 268.905Q167.123 267.813 166.991 266.718Q166.859 265.622 166.753 264.524Q166.648 263.425 166.57 262.325Q166.492 261.224 166.442 260.122Q166.391 259.02 166.367 257.916Q166.344 256.813 166.347 255.71Q166.351 254.607 166.382 253.504Q166.413 252.401 166.471 251.299Q166.529 250.197 166.615 249.097Q166.7 247.997 166.813 246.899Q166.925 245.801 167.065 244.707Q167.204 243.612 167.371 242.522Q167.538 241.431 167.731 240.344Q167.924 239.258 168.145 238.177Q168.365 237.096 168.612 236.02Q168.859 234.945 169.132 233.876Q169.405 232.807 169.705 231.745Q169.998 230.686 170.318 229.635Q170.637 228.584 170.982 227.541Q171.327 226.498 171.698 225.464Q172.069 224.43 172.465 223.406Q172.861 222.381 173.282 221.367Q173.704 220.352 174.15 219.348Q174.596 218.345 175.067 217.352Q175.538 216.36 176.033 215.379Q176.528 214.398 177.047 213.43Q177.567 212.462 178.109 211.507Q178.652 210.552 179.219 209.611Q179.785 208.67 180.374 207.743Q180.964 206.816 181.576 205.904Q182.188 204.991 182.822 204.094Q183.456 203.198 184.113 202.317Q184.769 201.436 185.447 200.571Q186.124 199.707 186.823 198.859Q187.522 198.012 188.242 197.182Q188.961 196.352 189.701 195.54Q190.441 194.728 191.201 193.934Q191.96 193.141 192.739 192.366Q193.518 191.592 194.316 190.837Q195.114 190.081 195.93 189.346Q196.747 188.611 197.581 187.896Q198.415 187.181 199.266 186.487Q200.118 185.793 200.986 185.121Q201.854 184.448 202.739 183.796Q203.624 183.145 204.524 182.516Q205.425 181.887 206.34 181.28Q207.256 180.673 208.187 180.089Q209.117 179.505 210.061 178.944Q211.006 178.383 211.964 177.846Q213.431 177.022 214.928 176.254Q216.425 175.486 217.949 174.774Q219.474 174.063 221.024 173.409Q222.574 172.755 224.147 172.159Q225.721 171.563 227.315 171.027Q228.91 170.491 230.524 170.015Q232.137 169.539 233.768 169.124Q235.398 168.708 237.043 168.354Q238.688 168 240.344 167.708Q242.001 167.416 243.668 167.186Q245.335 166.956 247.009 166.789Q248.683 166.621 250.362 166.517Q252.041 166.412 253.723 166.371Q255.405 166.329 257.087 166.351Q258.769 166.372 260.45 166.456Q262.13 166.541 263.806 166.688C269.048 167.196 274.099 168.6 279.289 169.214C280.657 163.018 282.461 156.873 284.105 150.743C287.952 136.396 292.055 122.072 295.583 107.645Q290.335 106.248 285 105.231Q279.665 104.215 274.27 103.585Q268.876 102.954 263.451 102.714Q258.025 102.473 252.596 102.623Z"/>
</svg>
